<svg xmlns="http://www.w3.org/2000/svg" xmlns:xlink="http://www.w3.org/1999/xlink" viewBox="0 0 256 256"><defs><style>.cls-1{fill:url(#linear-gradient);}.cls-2{fill:none;}</style><linearGradient id="linear-gradient" y1="128" x2="256" y2="128" gradientUnits="userSpaceOnUse"><stop offset="0" stop-color="#29cdff"/><stop offset="0.38" stop-color="#148eff"/><stop offset="1" stop-color="#0a60ff"/></linearGradient></defs><title>Asset 6</title><g id="Layer_2" data-name="Layer 2"><g id="Layer_1-2" data-name="Layer 1"><path class="cls-1" d="M232.06,88.67a63.47,63.47,0,0,0,1.43-13.07,62.54,62.54,0,0,0-60.83-62.49c-.48,0-1,0-1.43,0A62.16,62.16,0,0,0,121.44,38,81.75,81.75,0,1,0,60.89,188.47v40.88a13.56,13.56,0,0,0,13.56,13.56H205.93a13.56,13.56,0,0,0,13.56-13.56v-60a42.78,42.78,0,0,0,12.57-80.73ZM215.29,150c-.69.06-1.35.1-2.19.1a13.37,13.37,0,0,0-13.43,13.28v55.95a3.82,3.82,0,0,1-3.82,3.82H84.51a3.82,3.82,0,0,1-3.82-3.82v-35.6A13.57,13.57,0,0,0,70.64,170.6l-5-1.34A61.95,61.95,0,1,1,114.84,57.06a63.25,63.25,0,0,1,9.54,7.44c.38.38.78.76,1.14,1.14a61.59,61.59,0,0,1,18.14,42.79l0,1c0,1.75-.08,3.49-.23,5.17s-.34,3.49-.63,5.17q-.2,1.2-.46,2.4a9.84,9.84,0,0,0,5.84,11l.59.25.1,0a9.9,9.9,0,0,0,3.24.55,9.73,9.73,0,0,0,9.56-7.57c.06-.23.11-.44.15-.67.17-.84.32-1.68.46-2.48s.27-1.56.38-2.38l.06-.44a81.37,81.37,0,0,0,.74-11l0-1.28a81.74,81.74,0,0,0-26-58.51,42.43,42.43,0,0,1,76,21.57A42.87,42.87,0,0,1,212,87.14,42.74,42.74,0,0,1,186.47,115a43.62,43.62,0,0,1-5.61,1.74l-.86.19-1.41.27a9.8,9.8,0,0,0-8.13,9.19v.9a9.74,9.74,0,0,0,9.79,9.58,11.09,11.09,0,0,0,1.53-.11l.5-.08,1-.19,1-.22,1.71-.4,1.8-.47a62.6,62.6,0,0,0,30.71-19.57,63.44,63.44,0,0,0,6.16-8.58,22.88,22.88,0,0,1,11.46,19.9A23.13,23.13,0,0,1,215.29,150Z"/><rect class="cls-2" width="256" height="256"/></g></g></svg>